# xmcd CD database file
#
# Track frame offsets:
#	187
#	23725
#	42515
#	70002
#
# Disc length: 1126 seconds
#
# Revision: 0
# Processed by: cddbd v1.5PL3 Copyright (c) Steve Scherf et al.
# Submitted via: CDex 1.40Release
#
DISCID=2c046404
DTITLE=Charmy smile and Green head - GROWIN'UP
DYEAR=1997
DGENRE=不明
TTITLE0=Growin'Up
TTITLE1=パラシュート★
TTITLE2=少年
TTITLE3=太陽がくれた季節
EXTD=YEAR: 1997
EXTT0=
EXTT1=
EXTT2=
EXTT3=
PLAYORDER=
